<svg width="70" height="60" viewBox="0 0 70 60" fill="none" xmlns="http://www.w3.org/2000/svg">
<path d="M8.375 14.875C8.375 14.3777 8.14453 13.9008 7.7343 13.5492C7.32406 13.1975 6.76766 13 6.1875 13C5.60734 13 5.05094 13.1975 4.6407 13.5492C4.23047 13.9008 4 14.3777 4 14.875V44.875C4 45.3723 4.23047 45.8492 4.6407 46.2008C5.05094 46.5525 5.60734 46.75 6.1875 46.75C6.76766 46.75 7.32406 46.5525 7.7343 46.2008C8.14453 45.8492 8.375 45.3723 8.375 44.875V41.75H62.0183V44.875C62.0183 45.3723 62.2488 45.8492 62.659 46.2008C63.0693 46.5525 63.6257 46.75 64.2058 46.75C64.786 46.75 65.3424 46.5525 65.7526 46.2008C66.1629 45.8492 66.3933 45.3723 66.3933 44.875V38.9825C66.3933 33.995 66.3933 31.5025 65.5767 29.4975C64.8531 27.725 63.6729 26.115 62.1237 24.7872C60.5745 23.4593 58.6962 22.4477 56.6283 21.8275C54.2892 21.1275 51.3783 21.1275 45.5625 21.1275H45.5567C43.2292 21.1275 40.1958 21.1275 39.2596 21.405C38.4326 21.6531 37.6814 22.0577 37.0619 22.5887C36.4423 23.1198 35.9703 23.7636 35.6808 24.4725C35.3542 25.275 35.3542 26.275 35.3542 28.2675V38H8.375V14.875Z" fill="#2F88FF"/>
<path d="M20.4167 33.75C22.3505 33.75 24.2052 33.0915 25.5727 31.9194C26.9401 30.7473 27.7083 29.1576 27.7083 27.5C27.7083 25.8424 26.9401 24.2527 25.5727 23.0806C24.2052 21.9085 22.3505 21.25 20.4167 21.25C18.4828 21.25 16.6281 21.9085 15.2607 23.0806C13.8932 24.2527 13.125 25.8424 13.125 27.5C13.125 29.1576 13.8932 30.7473 15.2607 31.9194C16.6281 33.0915 18.4828 33.75 20.4167 33.75Z" fill="#2F88FF"/>
</svg>
