<svg width="32" height="32" viewBox="0 0 32 32" fill="none" xmlns="http://www.w3.org/2000/svg">
<g clip-path="url(#clip0_214_2335)">
<path d="M15.5 32C24.3368 32 31.5 24.8368 31.5 16C31.5 7.1632 24.3368 0 15.5 0C6.6632 0 -0.5 7.1632 -0.5 16C-0.5 24.8368 6.6632 32 15.5 32ZM23.0296 13.7024C22.7512 15.3872 21.8696 16.2096 20.676 16.5008C22.2632 17.3888 23.028 18.7376 22.2104 21.104C21.1944 24.0704 18.9192 24.3392 15.9064 23.7648L15.1288 26.896L13.3784 26.4624L14.1544 23.3312C13.956 23.2789 13.7571 23.2304 13.5576 23.1856C13.2824 23.1216 12.9976 23.056 12.716 22.9744L11.94 26.1056L10.1928 25.6736L10.9688 22.5408L7.4872 21.5936L8.3512 19.3792C8.3512 19.3792 9.6664 19.7408 9.6472 19.7184C10.1336 19.8368 10.372 19.4944 10.4696 19.2576L11.7112 14.2384L12.6168 10.6704C12.6552 10.2848 12.5336 9.7792 11.8216 9.5872C11.8696 9.56 10.5416 9.2704 10.5416 9.2704L11.0584 7.1712L14.6472 8.0608L15.4072 4.9936L17.2152 5.4416L16.4552 8.5088C16.9208 8.6112 17.3736 8.7328 17.8408 8.8528L18.5992 5.7856L20.3592 6.2208L19.5784 9.368C21.7976 10.184 23.396 11.3888 23.0296 13.7024ZM14.8696 14.3264C15.9208 14.6432 19.0376 15.5792 19.5624 13.4944C20.052 11.5104 17.3512 10.9056 16.0968 10.624C15.9475 10.592 15.8221 10.5627 15.7208 10.536L14.7816 14.3008L14.8696 14.3264ZM13.2472 20.4384L13.3992 20.4848C14.6952 20.8688 18.3688 21.9616 18.868 19.8928C19.38 17.8992 16.0776 17.1232 14.5976 16.7744C14.4344 16.7371 14.2968 16.704 14.1848 16.6752L13.2472 20.4384Z" fill="#699BF7"/>
</g>
<defs>
<clipPath id="clip0_214_2335">
<rect width="32" height="32" fill="white"/>
</clipPath>
</defs>
</svg>
