<svg width="60" height="60" viewBox="0 0 60 60" fill="none" xmlns="http://www.w3.org/2000/svg">
<path d="M48.0414 0C41.6853 0 36.5688 5.04416 36.5688 11.2987C36.5688 17.5584 41.6853 22.5974 48.0414 22.5974C54.3974 22.5974 59.5139 17.5584 59.5139 11.2987C59.5139 5.04416 54.3974 0 48.0414 0ZM53.382 4.41688L55.36 5.71299L46.1161 19.3636L38.7578 12.1299L40.4458 10.4675L45.7469 15.7013L53.382 4.41688ZM35.4743 17.026L19.8743 27.6623H-0.486115V32.3377H19.8743L35.4743 42.974C36.1469 41.5455 37.0699 40.2468 38.1776 39.1429L24.7798 30L38.1776 20.8571C37.0699 19.7532 36.1469 18.4545 35.4743 17.026ZM48.0414 37.4026C41.6853 37.4026 36.5688 42.4416 36.5688 48.7013C36.5688 54.961 41.6853 60 48.0414 60C54.3974 60 59.5139 54.961 59.5139 48.7013C59.5139 42.4416 54.3974 37.4026 48.0414 37.4026ZM42.5556 41.6364L48.0414 47.039L53.5271 41.6364L55.215 43.2987L49.7293 48.7013L55.215 54.1039L53.5271 55.7662L48.0414 50.3636L42.5556 55.7662L40.8677 54.1039L46.3535 48.7013L40.8677 43.2987L42.5556 41.6364Z" fill="#2F88FF"/>
</svg>
