<svg width="70" height="60" viewBox="0 0 70 60" fill="none" xmlns="http://www.w3.org/2000/svg">
<g clip-path="url(#clip0_111_936)">
<path d="M20.2344 15.8691C19.9336 15.8691 19.6875 16.0977 19.6875 16.377V19.4238C19.6875 19.7031 19.9336 19.9316 20.2344 19.9316H46.4844C46.7852 19.9316 47.0312 19.7031 47.0312 19.4238V16.377C47.0312 16.0977 46.7852 15.8691 46.4844 15.8691H20.2344ZM32.8125 25.0098H20.2344C19.9336 25.0098 19.6875 25.2383 19.6875 25.5176V28.5645C19.6875 28.8438 19.9336 29.0723 20.2344 29.0723H32.8125C33.1133 29.0723 33.3594 28.8438 33.3594 28.5645V25.5176C33.3594 25.2383 33.1133 25.0098 32.8125 25.0098ZM29.5312 54.082H14.2188V9.39453H52.5V29.707C52.5 29.9863 52.7461 30.2148 53.0469 30.2148H56.875C57.1758 30.2148 57.4219 29.9863 57.4219 29.707V6.85547C57.4219 5.73193 56.4443 4.82422 55.2344 4.82422H11.4844C10.2744 4.82422 9.29688 5.73193 9.29688 6.85547V56.6211C9.29688 57.7446 10.2744 58.6523 11.4844 58.6523H29.5312C29.832 58.6523 30.0781 58.4238 30.0781 58.1445V54.5898C30.0781 54.3105 29.832 54.082 29.5312 54.082ZM59.6094 48.4961H49.7656V46.1729C52.9307 45.2969 55.2344 42.5801 55.2344 39.3555C55.2344 35.4263 51.8096 32.2461 47.5781 32.2461C43.3467 32.2461 39.9219 35.4263 39.9219 39.3555C39.9219 42.5737 42.2256 45.2969 45.3906 46.1729V48.4961H35.5469C34.9453 48.4961 34.4531 48.9531 34.4531 49.5117V59.1602C34.4531 59.7188 34.9453 60.1758 35.5469 60.1758H59.6094C60.2109 60.1758 60.7031 59.7188 60.7031 59.1602V49.5117C60.7031 48.9531 60.2109 48.4961 59.6094 48.4961ZM44.1602 39.3555C44.1602 37.6035 45.6914 36.1816 47.5781 36.1816C49.4648 36.1816 50.9961 37.6035 50.9961 39.3555C50.9961 41.1074 49.4648 42.5293 47.5781 42.5293C45.6914 42.5293 44.1602 41.1074 44.1602 39.3555ZM56.4648 56.2402H38.6914V52.4316H56.4648V56.2402Z" fill="#2F88FF"/>
</g>
<defs>
<clipPath id="clip0_111_936">
<rect width="70" height="60" fill="white"/>
</clipPath>
</defs>
</svg>
