<svg width="24" height="24" viewBox="0 0 24 24" fill="none" xmlns="http://www.w3.org/2000/svg">
<path d="M18.3889 0H5.61111C2.78832 0 0.5 2.28832 0.5 5.11111V17.8889C0.5 20.7117 2.78832 23 5.61111 23H18.3889C21.2117 23 23.5 20.7117 23.5 17.8889V5.11111C23.5 2.28832 21.2117 0 18.3889 0Z" fill="#43CCF8"/>
<path d="M12.0001 16.6109C14.823 16.6109 17.1113 14.3226 17.1113 11.4998C17.1113 8.67698 14.823 6.38867 12.0001 6.38867C9.17735 6.38867 6.88904 8.67698 6.88904 11.4998C6.88904 14.3226 9.17735 16.6109 12.0001 16.6109Z" fill="#43CCF8" stroke="white" stroke-width="4" stroke-linejoin="round"/>
<path d="M19.0278 5.74989C19.7335 5.74989 20.3056 5.17783 20.3056 4.47211C20.3056 3.7664 19.7335 3.19434 19.0278 3.19434C18.3221 3.19434 17.75 3.7664 17.75 4.47211C17.75 5.17783 18.3221 5.74989 19.0278 5.74989Z" fill="white"/>
</svg>
