<svg width="70" height="60" viewBox="0 0 70 60" fill="none" xmlns="http://www.w3.org/2000/svg">
<g clip-path="url(#clip0_111_932)">
<path d="M36.1711 0.437554L67.2211 17.9358C68.8814 18.8764 69.4852 21.009 68.558 22.6932C67.6308 24.3774 65.5285 24.9898 63.8681 24.0493L34.5 7.50249L5.1211 24.0602C3.46079 25.0008 1.35845 24.3883 0.43126 22.7041C-0.495928 21.0199 0.107822 18.8873 1.76813 17.9468L32.8289 0.437554C33.8747 -0.153013 35.1361 -0.153013 36.1819 0.437554H36.1711ZM34.5 17.4984C35.6438 17.4984 36.7407 17.9593 37.5494 18.7797C38.3582 19.6001 38.8125 20.7128 38.8125 21.873C38.8125 23.0332 38.3582 24.1459 37.5494 24.9663C36.7407 25.7866 35.6438 26.2475 34.5 26.2475C33.3563 26.2475 32.2594 25.7866 31.4506 24.9663C30.6419 24.1459 30.1875 23.0332 30.1875 21.873C30.1875 20.7128 30.6419 19.6001 31.4506 18.7797C32.2594 17.9593 33.3563 17.4984 34.5 17.4984ZM15.525 27.9974C16.6688 27.9974 17.7657 28.4583 18.5744 29.2786C19.3832 30.099 19.8375 31.2117 19.8375 32.3719C19.8375 33.5321 19.3832 34.6448 18.5744 35.4652C17.7657 36.2856 16.6688 36.7465 15.525 36.7465C14.3813 36.7465 13.2844 36.2856 12.4756 35.4652C11.6669 34.6448 11.2125 33.5321 11.2125 32.3719C11.2125 31.2117 11.6669 30.099 12.4756 29.2786C13.2844 28.4583 14.3813 27.9974 15.525 27.9974ZM49.1625 32.3719C49.1625 31.2117 49.6169 30.099 50.4256 29.2786C51.2344 28.4583 52.3313 27.9974 53.475 27.9974C54.6188 27.9974 55.7157 28.4583 56.5244 29.2786C57.3332 30.099 57.7875 31.2117 57.7875 32.3719C57.7875 33.5321 57.3332 34.6448 56.5244 35.4652C55.7157 36.2856 54.6188 36.7465 53.475 36.7465C52.3313 36.7465 51.2344 36.2856 50.4256 35.4652C49.6169 34.6448 49.1625 33.5321 49.1625 32.3719ZM24.4627 53.7417L21.5625 48.2844V52.495C21.5625 54.4307 20.0208 55.9946 18.1125 55.9946H12.9375C11.0292 55.9946 9.48751 54.4307 9.48751 52.495V48.2844L6.58735 53.7417C5.90813 55.0213 4.34485 55.4916 3.08345 54.8135C1.82204 54.1354 1.35845 52.5387 2.02688 51.2592L6.11298 43.5708C7.76251 40.454 10.9753 38.5073 14.4684 38.5073H16.5708C18.3281 38.5073 20.01 38.9994 21.4655 39.8853L25.088 33.0719C26.7375 29.955 29.9503 28.0083 33.4435 28.0083H35.5458C39.0389 28.0083 42.241 29.955 43.9013 33.0719L47.5238 39.8853C48.9792 38.9994 50.6611 38.5073 52.4184 38.5073H54.5208C58.0139 38.5073 61.216 40.454 62.8763 43.5708L66.9623 51.2592C67.6416 52.5387 67.1672 54.1245 65.9058 54.8135C64.6444 55.5025 63.0811 55.0213 62.4019 53.7417L59.5125 48.2844V52.495C59.5125 54.4307 57.9708 55.9946 56.0625 55.9946H50.8875C48.9792 55.9946 47.4375 54.4307 47.4375 52.495V48.2844L44.5374 53.7417C43.8581 55.0213 42.2949 55.4916 41.0334 54.8135C39.772 54.1354 39.3084 52.5387 39.9769 51.2592L43.8905 43.8771C43.7072 43.6911 43.5455 43.4833 43.4269 43.2427L40.5375 37.7855V43.7458C40.5375 45.6816 38.9958 47.2455 37.0875 47.2455H31.9125C30.0042 47.2455 28.4625 45.6816 28.4625 43.7458V37.7855L25.5624 43.2427C25.433 43.4833 25.282 43.6911 25.0988 43.8771L29.0124 51.2592C29.6916 52.5387 29.2172 54.1245 27.9558 54.8135C26.6944 55.5025 25.1311 55.0213 24.4519 53.7417H24.4627Z" fill="#2F88FF"/>
</g>
<defs>
<clipPath id="clip0_111_932">
<rect width="69" height="56" fill="white"/>
</clipPath>
</defs>
</svg>
