<svg width="60" height="60" viewBox="0 0 60 60" fill="none" xmlns="http://www.w3.org/2000/svg">
<path d="M18.5065 7.5C19.6096 7.5 24.0221 17.4281 24.0221 18.5312C24.0221 20.7374 20.7127 22.9436 19.6096 25.1499C18.5065 27.3561 20.7127 29.5623 22.9189 31.7686C23.7794 32.629 27.3314 36.1811 29.5376 35.0779C31.7439 33.9748 33.9501 30.6655 36.1563 30.6655C37.2595 30.6655 47.1875 35.0779 47.1875 36.1811C47.1875 40.5935 43.8782 43.9029 40.5688 45.006C37.2595 46.1091 35.0532 46.1091 30.6408 45.006C26.2283 43.9029 22.9189 42.7998 17.4033 37.2842C11.8878 31.7686 10.7846 28.4592 9.68153 24.0468C8.57841 19.6343 8.57841 17.4281 9.68153 14.1187C10.7846 10.8094 14.094 7.5 18.5065 7.5Z" stroke="#2F88FF" stroke-width="3" stroke-linecap="round" stroke-linejoin="round"/>
<path d="M31.3001 16.3389C32.7981 17.0425 34.1598 17.9958 35.2947 19.1533C36.4068 20.2654 37.3373 21.6045 38.0182 23.057" stroke="#2F88FF" stroke-width="3" stroke-linecap="round" stroke-linejoin="round"/>
<path d="M33.5697 7.73682C36.7699 8.57658 39.6296 10.2334 41.8993 12.503C44.1462 14.7727 45.803 17.6097 46.6201 20.7872" stroke="#2F88FF" stroke-width="3" stroke-linecap="round" stroke-linejoin="round"/>
</svg>
