<svg width="60" height="60" viewBox="0 0 60 60" fill="none" xmlns="http://www.w3.org/2000/svg">
<path d="M24.7253 16.9645C24.7253 16.6168 24.8642 16.2834 25.1115 16.0375C25.3588 15.7917 25.6942 15.6535 26.044 15.6535H36.5934C36.9432 15.6535 37.2786 15.7917 37.5259 16.0375C37.7732 16.2834 37.9121 16.6168 37.9121 16.9645C37.9121 17.3123 37.7732 17.6457 37.5259 17.8916C37.2786 18.1374 36.9432 18.2756 36.5934 18.2756H26.044C25.6942 18.2756 25.3588 18.1374 25.1115 17.8916C24.8642 17.6457 24.7253 17.3123 24.7253 16.9645ZM26.044 20.8976C25.6942 20.8976 25.3588 21.0357 25.1115 21.2816C24.8642 21.5274 24.7253 21.8609 24.7253 22.2086C24.7253 22.5563 24.8642 22.8898 25.1115 23.1356C25.3588 23.3815 25.6942 23.5196 26.044 23.5196H36.5934C36.9432 23.5196 37.2786 23.3815 37.5259 23.1356C37.7732 22.8898 37.9121 22.5563 37.9121 22.2086C37.9121 21.8609 37.7732 21.5274 37.5259 21.2816C37.2786 21.0357 36.9432 20.8976 36.5934 20.8976H26.044ZM24.7253 34.0077C24.7253 33.66 24.8642 33.3266 25.1115 33.0807C25.3588 32.8348 25.6942 32.6967 26.044 32.6967H36.5934C36.9432 32.6967 37.2786 32.8348 37.5259 33.0807C37.7732 33.3266 37.9121 33.66 37.9121 34.0077C37.9121 34.3554 37.7732 34.6889 37.5259 34.9348C37.2786 35.1806 36.9432 35.3187 36.5934 35.3187H26.044C25.6942 35.3187 25.3588 35.1806 25.1115 34.9348C24.8642 34.6889 24.7253 34.3554 24.7253 34.0077ZM26.044 37.9408C25.6942 37.9408 25.3588 38.0789 25.1115 38.3248C24.8642 38.5706 24.7253 38.9041 24.7253 39.2518C24.7253 39.5995 24.8642 39.933 25.1115 40.1788C25.3588 40.4247 25.6942 40.5628 26.044 40.5628H36.5934C36.9432 40.5628 37.2786 40.4247 37.5259 40.1788C37.7732 39.933 37.9121 39.5995 37.9121 39.2518C37.9121 38.9041 37.7732 38.5706 37.5259 38.3248C37.2786 38.0789 36.9432 37.9408 36.5934 37.9408H26.044Z" fill="#2F88FF"/>
<path fill-rule="evenodd" clip-rule="evenodd" d="M11.5385 32.6968C11.5385 32.3491 11.6774 32.0157 11.9247 31.7698C12.172 31.5239 12.5074 31.3858 12.8571 31.3858H19.4505C19.8003 31.3858 20.1357 31.5239 20.383 31.7698C20.6303 32.0157 20.7692 32.3491 20.7692 32.6968V39.2519C20.7692 39.5996 20.6303 39.9331 20.383 40.1789C20.1357 40.4248 19.8003 40.5629 19.4505 40.5629H12.8571C12.5074 40.5629 12.172 40.4248 11.9247 40.1789C11.6774 39.9331 11.5385 39.5996 11.5385 39.2519V32.6968ZM14.1758 34.0078V37.9409H18.1319V34.0078H14.1758Z" fill="#2F88FF"/>
<path d="M21.7016 17.8914C21.9418 17.6442 22.0747 17.313 22.0717 16.9693C22.0687 16.6255 21.93 16.2967 21.6855 16.0536C21.441 15.8106 21.1103 15.6727 20.7645 15.6697C20.4187 15.6667 20.0856 15.7989 19.8369 16.0377L15.4945 20.3548L13.7895 18.6597C13.5408 18.4209 13.2077 18.2887 12.8619 18.2917C12.5162 18.2947 12.1854 18.4326 11.9409 18.6757C11.6964 18.9187 11.5577 19.2476 11.5547 19.5913C11.5517 19.935 11.6846 20.2662 11.9249 20.5135L15.4945 24.0624L21.7016 17.8914Z" fill="#2F88FF"/>
<path fill-rule="evenodd" clip-rule="evenodd" d="M12.3077 7.5C10.967 7.5 9.68129 8.02678 8.73331 8.96447C7.78532 9.90215 7.25275 11.1739 7.25275 12.5V47.5C7.25275 48.8261 7.78532 50.0979 8.73331 51.0355C9.68129 51.9732 10.967 52.5 12.3077 52.5H37.5824C38.9231 52.5 40.2088 51.9732 41.1568 51.0355C42.1048 50.0979 42.6374 48.8261 42.6374 47.5V12.5C42.6374 11.1739 42.1048 9.90215 41.1568 8.96447C40.2088 8.02678 38.9231 7.5 37.5824 7.5H12.3077ZM9.78022 12.5C9.78022 11.837 10.0465 11.2011 10.5205 10.7322C10.9945 10.2634 11.6374 10 12.3077 10H37.5824C38.2527 10 38.8956 10.2634 39.3696 10.7322C39.8436 11.2011 40.1099 11.837 40.1099 12.5V47.5C40.1099 48.163 39.8436 48.7989 39.3696 49.2678C38.8956 49.7366 38.2527 50 37.5824 50H12.3077C11.6374 50 10.9945 49.7366 10.5205 49.2678C10.0465 48.7989 9.78022 48.163 9.78022 47.5V12.5ZM45.1648 20C45.1648 19.0054 45.5643 18.0516 46.2753 17.3483C46.9862 16.6451 47.9505 16.25 48.956 16.25C49.9615 16.25 50.9258 16.6451 51.6368 17.3483C52.3478 18.0516 52.7472 19.0054 52.7472 20V45.3788L48.956 51.0038L45.1648 45.3788V20ZM48.956 18.75C48.6209 18.75 48.2994 18.8817 48.0624 19.1161C47.8254 19.3505 47.6923 19.6685 47.6923 20V22.5H50.2198V20C50.2198 19.6685 50.0866 19.3505 49.8496 19.1161C49.6126 18.8817 49.2912 18.75 48.956 18.75ZM48.956 46.4962L47.6923 44.6212V25H50.2198V44.6212L48.956 46.4962Z" fill="#2F88FF"/>
</svg>
